<svg xmlns="http://www.w3.org/2000/svg" xmlns:xlink="http://www.w3.org/1999/xlink" width="308" zoomAndPan="magnify" viewBox="0 0 230.87999 231" height="308" preserveAspectRatio="xMidYMid meet" version="1.0"><defs><clipPath id="2697487edb"><path d="M 0 0.0585938 L 230.128906 0.0585938 L 230.128906 230.191406 L 0 230.191406 Z M 0 0.0585938 " clip-rule="nonzero"/></clipPath></defs><g clip-path="url(#2697487edb)"><path fill="#14ce75" d="M 230.132812 115.121094 C 230.132812 178.691406 178.632812 230.191406 115.066406 230.191406 C 51.5 230.191406 -0.00390625 178.691406 -0.00390625 115.121094 C -0.00390625 51.558594 51.5 0.0585938 115.066406 0.0585938 C 178.632812 0.0585938 230.132812 51.558594 230.132812 115.121094 Z M 230.132812 115.121094 " fill-opacity="1" fill-rule="nonzero"/></g><path fill="#ffffff" d="M 92.628906 185.914062 C 92.601562 185.914062 92.574219 185.914062 92.546875 185.914062 C 87.683594 185.890625 83.089844 183.695312 80.011719 179.929688 L 34.027344 123.628906 L 59.265625 103.015625 L 92.757812 144.023438 L 170.96875 50.21875 L 196 71.089844 L 105.144531 180.054688 C 102.046875 183.769531 97.460938 185.914062 92.628906 185.914062 Z M 92.628906 185.914062 " fill-opacity="1" fill-rule="nonzero"/></svg>