<svg width="44" height="31" viewBox="0 0 44 31" fill="none" xmlns="http://www.w3.org/2000/svg">
<rect x="0.5" y="0.71875" width="43" height="29.1714" rx="2" fill="white" stroke="#D9D9D9"/>
<path d="M10.1459 9.20093C10.1831 7.69982 11.5212 6.40412 13.0124 6.38218C14.5014 6.3776 15.9906 6.38152 17.4796 6.38019C17.4756 11.4026 17.4877 16.4255 17.4735 21.4476C17.4162 22.9305 16.0926 24.2015 14.6177 24.2278C13.1259 24.2332 11.6339 24.2285 10.142 24.23V17.9607C11.5911 18.303 13.1107 18.4487 14.5891 18.2217C15.4727 18.0795 16.4396 17.6455 16.7388 16.7287C16.9589 15.9445 16.835 15.1192 16.8677 14.3143V12.4451H14.3093C14.2978 13.6814 14.3329 14.9198 14.2908 16.1545C14.2218 16.9135 13.4702 17.3957 12.7545 17.3699C11.8667 17.3793 10.1076 16.7266 10.1076 16.7266C10.1032 14.4104 10.1334 11.5097 10.1459 9.20116V9.20093Z" fill="url(#paint0_linear_2005_5103)"/>
<path d="M28.0571 15.6662C28.7029 15.6803 29.3523 15.6377 29.9955 15.6883C30.6469 15.8099 30.8039 16.7959 30.2252 17.1189C29.8303 17.3316 29.3613 17.1981 28.9332 17.2357H28.0571V15.6662V15.6662ZM30.3689 13.8899C30.5124 14.3963 30.0242 14.851 29.5365 14.7812H28.0571C28.0675 14.3037 28.0368 13.7853 28.0722 13.3329C28.6648 13.3496 29.2629 13.2989 29.8521 13.3594C30.1052 13.423 30.3171 13.6312 30.3689 13.8899V13.8899ZM33.9291 6.37992C33.9566 7.34704 33.9331 8.36528 33.941 9.35202C33.9391 13.3637 33.9448 17.3754 33.9378 21.3873C33.9118 22.8908 32.5794 24.1972 31.0863 24.2272C29.5918 24.2333 28.097 24.2282 26.6023 24.2298V18.1649C28.2309 18.1565 29.8603 18.182 31.4882 18.1522C32.2434 18.1048 33.0706 17.6065 33.1057 16.7754C33.1947 15.9408 32.4077 15.3635 31.6606 15.2723C31.3734 15.2648 31.3818 15.1886 31.6606 15.1553C32.3732 15.0013 32.9328 14.2638 32.7231 13.5252C32.5445 12.7483 31.6858 12.4476 30.9716 12.4491C29.5154 12.4392 28.0589 12.4477 26.6026 12.4449C26.612 11.3126 26.583 10.1792 26.6183 9.04775C26.7336 7.5714 28.0996 6.35389 29.5717 6.3803C31.0244 6.38008 32.4768 6.38008 33.9291 6.38003V6.37992Z" fill="url(#paint1_linear_2005_5103)"/>
<path d="M18.4337 13.1984C18.2991 13.227 18.4067 12.7397 18.3722 12.5548C18.3814 11.3861 18.353 10.216 18.3879 9.04807C18.5029 7.56547 19.8794 6.34492 21.3575 6.37963H25.7102C25.7061 11.402 25.7182 16.425 25.7041 21.4471C25.6467 22.93 24.323 24.2009 22.8481 24.2272C21.3562 24.2328 19.8641 24.2281 18.3722 24.2295V17.3606C19.3911 18.1966 20.776 18.3268 22.0455 18.329C23.0025 18.3287 23.9539 18.1812 24.8832 17.9604V16.702C23.8359 17.224 22.6047 17.5556 21.4437 17.2557C20.6338 17.0541 20.0458 16.2714 20.0589 15.4356C19.9651 14.5664 20.4746 13.6487 21.3288 13.3903C22.3893 13.0583 23.5451 13.3122 24.5392 13.7439C24.7522 13.8554 24.9683 13.9937 24.8832 13.6377V12.6486C23.2206 12.253 21.4513 12.1075 19.781 12.5378C19.2975 12.6742 18.8265 12.881 18.4337 13.1985V13.1984Z" fill="url(#paint2_linear_2005_5103)"/>
<defs>
<linearGradient id="paint0_linear_2005_5103" x1="9.98587" y1="15.476" x2="17.3593" y2="15.476" gradientUnits="userSpaceOnUse">
<stop stop-color="#0F6EB6"/>
<stop offset="1" stop-color="#006DBA"/>
</linearGradient>
<linearGradient id="paint1_linear_2005_5103" x1="26.5522" y1="14.9232" x2="33.8947" y2="14.9232" gradientUnits="userSpaceOnUse">
<stop stop-color="#58B03A"/>
<stop offset="1" stop-color="#55B330"/>
</linearGradient>
<linearGradient id="paint2_linear_2005_5103" x1="18.3614" y1="15.0958" x2="25.7089" y2="15.0958" gradientUnits="userSpaceOnUse">
<stop stop-color="#DE0D3D"/>
<stop offset="1" stop-color="#E30138"/>
</linearGradient>
</defs>
</svg>
