<svg width="44" height="31" viewBox="0 0 44 31" fill="none" xmlns="http://www.w3.org/2000/svg">
<rect x="0.5" y="0.804688" width="43" height="29" rx="2" fill="white" stroke="#D9D9D9"/>
<path fill-rule="evenodd" clip-rule="evenodd" d="M22.41 22.2378C20.7311 23.6183 18.5533 24.4518 16.1736 24.4518C10.8636 24.4518 6.55908 20.3024 6.55908 15.1839C6.55908 10.0654 10.8636 5.91602 16.1736 5.91602C18.5533 5.91602 20.7311 6.74944 22.41 8.13001C24.0889 6.74946 26.2667 5.91604 28.6464 5.91604C33.9563 5.91604 38.2609 10.0654 38.2609 15.1839C38.2609 20.3024 33.9563 24.4518 28.6464 24.4518C26.2667 24.4518 24.0889 23.6184 22.41 22.2378Z" fill="#ED0006"/>
<path fill-rule="evenodd" clip-rule="evenodd" d="M22.4099 22.2378C24.4772 20.5379 25.788 18.0085 25.788 15.1839C25.788 12.3593 24.4772 9.82988 22.4099 8.12998C24.0888 6.74943 26.2666 5.91602 28.6463 5.91602C33.9562 5.91602 38.2608 10.0654 38.2608 15.1839C38.2608 20.3024 33.9562 24.4518 28.6463 24.4518C26.2666 24.4518 24.0888 23.6183 22.4099 22.2378Z" fill="#F9A000"/>
<path fill-rule="evenodd" clip-rule="evenodd" d="M22.41 22.2376C24.4772 20.5377 25.788 18.0083 25.788 15.1837C25.788 12.3592 24.4772 9.82978 22.41 8.12988C20.3428 9.82978 19.032 12.3592 19.032 15.1837C19.032 18.0083 20.3428 20.5377 22.41 22.2376Z" fill="#FF5E00"/>
</svg>
