<svg width="44" height="31" viewBox="0 0 44 31" fill="none" xmlns="http://www.w3.org/2000/svg">
<rect x="0.5" y="0.5" width="43" height="29.6087" rx="2" fill="white" stroke="#D9D9D9"/>
<path fill-rule="evenodd" clip-rule="evenodd" d="M13.4395 20.7354H10.7739L8.77508 12.9992C8.6802 12.6433 8.47876 12.3287 8.18245 12.1805C7.44295 11.8078 6.62808 11.5113 5.73914 11.3617V11.0639H10.0331C10.6258 11.0639 11.0702 11.5113 11.1443 12.0309L12.1814 17.6113L14.8457 11.0639H17.4371L13.4395 20.7354ZM18.9187 20.7354H16.4013L18.4742 11.0639H20.9916L18.9187 20.7354ZM24.2485 13.7432C24.3226 13.2223 24.7671 12.9244 25.2856 12.9244C26.1005 12.8497 26.9881 12.9992 27.7289 13.3706L28.1734 11.2882C27.4326 10.9904 26.6177 10.8408 25.8783 10.8408C23.4349 10.8408 21.657 12.1805 21.657 14.0397C21.657 15.4542 22.9164 16.1968 23.8053 16.6442C24.7671 17.0904 25.1375 17.3882 25.0634 17.8343C25.0634 18.5035 24.3226 18.8014 23.5831 18.8014C22.6942 18.8014 21.8052 18.5783 20.9916 18.2057L20.5472 20.2893C21.4361 20.6606 22.3978 20.8102 23.2868 20.8102C26.0264 20.8837 27.7289 19.5453 27.7289 17.5365C27.7289 15.0068 24.2485 14.8585 24.2485 13.7432V13.7432ZM36.5392 20.7354L34.5403 11.0639H32.3933C31.9489 11.0639 31.5044 11.3617 31.3562 11.8078L27.6549 20.7354H30.2463L30.7636 19.3223H33.9477L34.244 20.7354H36.5392ZM32.7637 13.6684L33.5032 17.3134H31.4303L32.7637 13.6684Z" fill="#172B85"/>
</svg>
